<svg id="good_banana" data-name="good banana" xmlns="http://www.w3.org/2000/svg" viewBox="0 0 289.17 137.06"><defs><style>.cls-1{fill:#ffe706;}.cls-2{fill:#f7c23c;}.cls-3{fill:#dbc316;}.cls-4{fill:#a3e20a;}.cls-5{fill:#47ba00;}.cls-6{fill:#f9d812;}.cls-7{fill:#aace15;}.cls-8{fill:#3f3f3f;}.cls-9{fill:#ba851c;}.cls-10{fill:#f8ff2d;}.cls-11{fill:#b6f500;}</style></defs><path class="cls-1" d="M392.18-315.21c-.71-.93-.89-1.18-.89-1.18A5.62,5.62,0,0,0,392.18-315.21Z" transform="translate(-391.29 336.54)"/><path d="M536.93-227.64a9.51,9.51,0,0,0,7.19,4.51,1,1,0,0,0,1-1,1,1,0,0,0-1-1l-.15,0-.15,0-.42-.09a6.78,6.78,0,0,1-.88-.25,4.13,4.13,0,0,1-.45-.17l-.07,0-.21-.1c-.28-.14-.54-.29-.8-.45l-.36-.24-.19-.14c-.14-.1.17.14-.06-.05s-.46-.4-.68-.61-.41-.44-.6-.68l-.05-.07-.14-.19c-.09-.13-.17-.27-.26-.41a1,1,0,0,0-1.36-.36,1,1,0,0,0-.36,1.37Z" transform="translate(-391.29 336.54)"/><path class="cls-2" d="M430.13-253.31c5.79,0,5.8-9,0-9s-5.8,9,0,9Z" transform="translate(-391.29 336.54)"/><path class="cls-2" d="M414.13-264.31c5.79,0,5.8-9,0-9s-5.8,9,0,9Z" transform="translate(-391.29 336.54)"/><path class="cls-2" d="M430-275.27c6.33,0,6.34-9.83,0-9.83s-6.34,9.83,0,9.83Z" transform="translate(-391.29 336.54)"/><path class="cls-2" d="M464.67-254.69c9.25,0,9.27-14.38,0-14.38s-9.27,14.38,0,14.38Z" transform="translate(-391.29 336.54)"/><path class="cls-2" d="M448.63-278.77a1,1,0,0,0,0-1.91,1,1,0,0,0,0,1.91Z" transform="translate(-391.29 336.54)"/><path class="cls-2" d="M423.46-290.31c5.79,0,5.8-9,0-9s-5.8,9,0,9Z" transform="translate(-391.29 336.54)"/><path class="cls-3" d="M402.46-318.73c8-2.66,9.33-13.41,9.33-13.41l.35,1.1c-.55-3.42-2.63-5.94-6.85-5.44-9,1.09-12.16,11.75-13.5,15.09a12.35,12.35,0,0,0,1.56,2l-.67-.86C394-318.82,397-316.9,402.46-318.73Z" transform="translate(-391.29 336.54)"/><path class="cls-1" d="M536.29-223.14c5-7,13-16,8-24a38,38,0,0,1-3.06-6.55,12,12,0,0,1-1.93,0c-7-.69-57.61-5.84-65.38-12.71S423.28-305.52,418.46-312c-2.09-2.82-2.42-5.32-2-7.36-2-4.64-3.63-9.51-4.31-11.63.84,5.25-2,12.62-6.35,14.4a10.58,10.58,0,0,1-12.44-2.71c1.36,1.75,3.87,4.93,8.44,10.62,10.11,12.58,8,18,6.67,37.34s29.33,47.33,74.67,63.33c21.33,7.53,42.51,9.15,60.28,8.41C536.55-206.88,529.12-214.38,536.29-223.14Z" transform="translate(-391.29 336.54)"/><path class="cls-1" d="M405.79-316.64c4.38-1.78,7.19-9.15,6.35-14.4l-.35-1.1s-1.33,10.75-9.33,13.41c-5.47,1.83-8.44-.09-9.78-1.48l.67.86A10.58,10.58,0,0,0,405.79-316.64Z" transform="translate(-391.29 336.54)"/><path class="cls-4" d="M680.13-301.19c0,.84.18,1.84.27,2.77A8.37,8.37,0,0,0,680.13-301.19Z" transform="translate(-391.29 336.54)"/><path class="cls-4" d="M673.63-299.81c-2.17-.5-2.34-5.5-2.34-5.5s1.73.06,3.35.23c-3.33-1-7.62-.57-16.18,1.69-5.32,1.4-16.43,6.1-29.63,11.77.24,3.66-1.84,9.1-7.81,14.27-10.81,9.34-67.08,22.61-79.79,23.66a38,38,0,0,0,3.06,6.55c5,8-3,17-8,24-7.17,8.76.26,16.26,7.12,23.49a199.57,199.57,0,0,0,42.38-6.41c12.67-3.33,45.34-18.67,65.34-32s19.33-33.33,21.33-36.67c1.41-2.35,6.48-13.68,7.69-21.31a1,1,0,0,1-.86.4C677.29-295.64,675.79-299.31,673.63-299.81Z" transform="translate(-391.29 336.54)"/><path class="cls-5" d="M680.13-301.19v-.12c0-2.17-2-2.5-2.84-3.17a7.19,7.19,0,0,0-2.65-.6,15.27,15.27,0,0,1,4.49,2.35A2.89,2.89,0,0,1,680.13-301.19Z" transform="translate(-391.29 336.54)"/><path class="cls-5" d="M680.4-298.42a21.44,21.44,0,0,1-.25,2.38A3.77,3.77,0,0,0,680.4-298.42Z" transform="translate(-391.29 336.54)"/><path class="cls-5" d="M680.13-301.19a2.89,2.89,0,0,0-1-1.54,15.27,15.27,0,0,0-4.49-2.35c-1.62-.17-3.35-.23-3.35-.23s.17,5,2.34,5.5,3.66,4.17,5.66,4.17a1,1,0,0,0,.86-.4,21.44,21.44,0,0,0,.25-2.38C680.31-299.35,680.14-300.35,680.13-301.19Z" transform="translate(-391.29 336.54)"/><path class="cls-6" d="M418.46-312c4.82,6.53,26.08,36.66,54.58,48.41,29.27,12.07,59.29,9.3,66.26,10a12,12,0,0,0,1.93,0,26.68,26.68,0,0,1-1.57-10.48c-18.32-.05-35.17-.36-42.37-2.47-11.33-3.34-21.5-6.25-48.75-26.25-9.61-7.06-22.08-12.5-26.75-17.17-1.8-1.8-3.69-5.49-5.34-9.35C416-317.37,416.37-314.87,418.46-312Z" transform="translate(-391.29 336.54)"/><path class="cls-7" d="M539.66-264.17a26.68,26.68,0,0,0,1.57,10.48c12.71-1.05,69-14.32,79.79-23.66,6-5.17,8.05-10.61,7.81-14.27-18.21,7.82-40.42,17.48-57,22.89C561.34-265.32,550.18-264.14,539.66-264.17Z" transform="translate(-391.29 336.54)"/><circle class="cls-8" cx="135.5" cy="98.52" r="1.75"/><circle class="cls-8" cx="166.63" cy="97.9" r="1.75"/><path class="cls-8" d="M528.9-215.89c2.15,2.35,5.36,3.06,8.37,3.55a2.16,2.16,0,0,0,1.54-.2,2,2,0,0,0,.92-1.2,2,2,0,0,0-1.39-2.46,25.58,25.58,0,0,1-4-.88l-.43-.15-.26-.1c-.24-.09.39.18.16.07s-.58-.28-.85-.44-.29-.17-.43-.26l-.18-.13c-.26-.19,0,0,.09.07-.24-.24-.51-.44-.74-.69a2,2,0,0,0-2.83,0,2,2,0,0,0,0,2.82Z" transform="translate(-391.29 336.54)"/><ellipse class="cls-9" cx="32.25" cy="64.4" rx="2.75" ry="2.5"/><ellipse class="cls-9" cx="50.5" cy="67.4" rx="3" ry="2.5"/><ellipse class="cls-9" cx="39.62" cy="56.7" rx="1.12" ry="1.05"/><ellipse class="cls-9" cx="38.75" cy="85.4" rx="3.75" ry="3"/><circle class="cls-9" cx="54.75" cy="80.65" r="1.25"/><ellipse class="cls-9" cx="66.5" cy="94.9" rx="3.5" ry="3"/><ellipse class="cls-9" cx="38.25" cy="48.4" rx="2.25" ry="1.5"/><ellipse class="cls-9" cx="420.29" cy="-282.64" rx="2" ry="3" transform="translate(89.22 556.8) rotate(-62.91)"/><ellipse class="cls-9" cx="417.42" cy="-296.46" rx="1.38" ry="1.43" transform="translate(99.96 546.71) rotate(-62.91)"/><path class="cls-10" d="M490.44-210.29c8,2.91,16,5.44,24.56,5.67,8.26.23,8.25-12.6,0-12.82-7.37-.2-14.28-2.73-21.15-5.22-7.77-2.82-11.12,9.57-3.41,12.37Z" transform="translate(-391.29 336.54)"/><path class="cls-11" d="M596.74-215.68c8-2.42,16.18-5,23.11-9.93,6.69-4.72.29-15.85-6.47-11.07-6.11,4.32-13,6.5-20,8.63-7.89,2.37-4.53,14.75,3.41,12.37Z" transform="translate(-391.29 336.54)"/><path class="cls-11" d="M636-234.23c8.25,0,8.27-12.82,0-12.82s-8.26,12.82,0,12.82Z" transform="translate(-391.29 336.54)"/><path class="cls-10" d="M474.54-216c8.25,0,8.27-12.82,0-12.82s-8.26,12.82,0,12.82Z" transform="translate(-391.29 336.54)"/></svg>