<svg width="246" height="175" viewBox="0 0 246 175" fill="none" xmlns="http://www.w3.org/2000/svg">
<circle cx="120.5" cy="83.5" r="83.5" fill="#CEFF7D"/>
<ellipse cx="42" cy="21.5" rx="7" ry="6.5" fill="#CEFF7D"/>
<ellipse cx="226" cy="36" rx="15" ry="14" fill="#CEFF7D"/>
<ellipse cx="31.5" cy="156" rx="20.5" ry="19" fill="#CEFF7D"/>
<path d="M20.808 104.576C17.304 104.576 14.184 103.976 11.448 102.776C8.712 101.576 6.552 99.944 4.968 97.88C3.384 95.768 2.496 93.416 2.304 90.824H14.472C14.616 92.216 15.264 93.344 16.416 94.208C17.568 95.072 18.984 95.504 20.664 95.504C22.2 95.504 23.376 95.216 24.192 94.64C25.056 94.016 25.488 93.224 25.488 92.264C25.488 91.112 24.888 90.272 23.688 89.744C22.488 89.168 20.544 88.544 17.856 87.872C14.976 87.2 12.576 86.504 10.656 85.784C8.736 85.016 7.08 83.84 5.688 82.256C4.296 80.624 3.6 78.44 3.6 75.704C3.6 73.4 4.224 71.312 5.472 69.44C6.768 67.52 8.64 66.008 11.088 64.904C13.584 63.8 16.536 63.248 19.944 63.248C24.984 63.248 28.944 64.496 31.824 66.992C34.752 69.488 36.432 72.8 36.864 76.928H25.488C25.296 75.536 24.672 74.432 23.616 73.616C22.608 72.8 21.264 72.392 19.584 72.392C18.144 72.392 17.04 72.68 16.272 73.256C15.504 73.784 15.12 74.528 15.12 75.488C15.12 76.64 15.72 77.504 16.92 78.08C18.168 78.656 20.088 79.232 22.68 79.808C25.656 80.576 28.08 81.344 29.952 82.112C31.824 82.832 33.456 84.032 34.848 85.712C36.288 87.344 37.032 89.552 37.08 92.336C37.08 94.688 36.408 96.8 35.064 98.672C33.768 100.496 31.872 101.936 29.376 102.992C26.928 104.048 24.072 104.576 20.808 104.576ZM69.3084 63.392C73.9164 63.392 77.6124 64.928 80.3964 68C83.1804 71.024 84.5724 75.2 84.5724 80.528V104H72.3324V82.184C72.3324 79.496 71.6364 77.408 70.2444 75.92C68.8524 74.432 66.9804 73.688 64.6284 73.688C62.2764 73.688 60.4044 74.432 59.0124 75.92C57.6204 77.408 56.9244 79.496 56.9244 82.184V104H44.6124V50.72H56.9244V69.224C58.1724 67.448 59.8764 66.032 62.0364 64.976C64.1964 63.92 66.6204 63.392 69.3084 63.392ZM131 83.264C131 84.416 130.928 85.616 130.784 86.864H102.92C103.112 89.36 103.904 91.28 105.296 92.624C106.736 93.92 108.488 94.568 110.552 94.568C113.624 94.568 115.76 93.272 116.96 90.68H130.064C129.392 93.32 128.168 95.696 126.392 97.808C124.664 99.92 122.48 101.576 119.84 102.776C117.2 103.976 114.248 104.576 110.984 104.576C107.048 104.576 103.544 103.736 100.472 102.056C97.4001 100.376 95.0001 97.976 93.2721 94.856C91.5441 91.736 90.6801 88.088 90.6801 83.912C90.6801 79.736 91.5201 76.088 93.2001 72.968C94.9281 69.848 97.3281 67.448 100.4 65.768C103.472 64.088 107 63.248 110.984 63.248C114.872 63.248 118.328 64.064 121.352 65.696C124.376 67.328 126.728 69.656 128.408 72.68C130.136 75.704 131 79.232 131 83.264ZM118.4 80.024C118.4 77.912 117.68 76.232 116.24 74.984C114.8 73.736 113 73.112 110.84 73.112C108.776 73.112 107.024 73.712 105.584 74.912C104.192 76.112 103.328 77.816 102.992 80.024H118.4ZM149.807 50.72V104H137.495V50.72H149.807ZM178.89 74.048H172.266V104H159.954V74.048H155.49V63.824H159.954V62.672C159.954 57.728 161.37 53.984 164.202 51.44C167.034 48.848 171.186 47.552 176.658 47.552C177.57 47.552 178.242 47.576 178.674 47.624V58.064C176.322 57.92 174.666 58.256 173.706 59.072C172.746 59.888 172.266 61.352 172.266 63.464V63.824H178.89V74.048ZM190.867 59.648C188.707 59.648 186.931 59.024 185.539 57.776C184.195 56.48 183.523 54.896 183.523 53.024C183.523 51.104 184.195 49.52 185.539 48.272C186.931 46.976 188.707 46.328 190.867 46.328C192.979 46.328 194.707 46.976 196.051 48.272C197.443 49.52 198.139 51.104 198.139 53.024C198.139 54.896 197.443 56.48 196.051 57.776C194.707 59.024 192.979 59.648 190.867 59.648ZM196.987 63.824V104H184.675V63.824H196.987ZM243.781 83.264C243.781 84.416 243.709 85.616 243.565 86.864H215.701C215.893 89.36 216.685 91.28 218.077 92.624C219.517 93.92 221.269 94.568 223.333 94.568C226.405 94.568 228.541 93.272 229.741 90.68H242.845C242.173 93.32 240.949 95.696 239.173 97.808C237.445 99.92 235.261 101.576 232.621 102.776C229.981 103.976 227.029 104.576 223.765 104.576C219.829 104.576 216.325 103.736 213.253 102.056C210.181 100.376 207.781 97.976 206.053 94.856C204.325 91.736 203.461 88.088 203.461 83.912C203.461 79.736 204.301 76.088 205.981 72.968C207.709 69.848 210.109 67.448 213.181 65.768C216.253 64.088 219.781 63.248 223.765 63.248C227.653 63.248 231.109 64.064 234.133 65.696C237.157 67.328 239.509 69.656 241.189 72.68C242.917 75.704 243.781 79.232 243.781 83.264ZM231.181 80.024C231.181 77.912 230.461 76.232 229.021 74.984C227.581 73.736 225.781 73.112 223.621 73.112C221.557 73.112 219.805 73.712 218.365 74.912C216.973 76.112 216.109 77.816 215.773 80.024H231.181Z" fill="#322D2D"/>
</svg>
