<svg id="old_banana" data-name="old banana" xmlns="http://www.w3.org/2000/svg" viewBox="0 0 289.17 137.06"><defs><style>.cls-1{fill:#ffe706;}.cls-2{fill:#f7c23c;}.cls-3{fill:#dbc316;}.cls-4{fill:#a3e20a;}.cls-5{fill:#47ba00;}.cls-6{fill:#f9d812;}.cls-7{fill:#3f3f3f;}.cls-8{fill:#ba851c;}.cls-9{fill:#f8ff2d;}</style></defs><path class="cls-1" d="M921.34-388.5c-.72-.93-.89-1.18-.89-1.18A5.62,5.62,0,0,0,921.34-388.5Z" transform="translate(-920.45 409.83)"/><path d="M1066.08-300.93a9.56,9.56,0,0,0,7.2,4.51,1,1,0,0,0,1-1,1,1,0,0,0-1-1l-.15,0-.15,0-.43-.09a6.64,6.64,0,0,1-.87-.25,4.13,4.13,0,0,1-.45-.17l-.07,0-.22-.1c-.27-.14-.53-.29-.79-.45l-.36-.24-.19-.14c-.15-.1.17.14-.07-.05s-.46-.4-.67-.61a7.8,7.8,0,0,1-.61-.68c.09.11,0,0,0-.07l-.14-.19c-.09-.13-.18-.27-.26-.41a1,1,0,0,0-1.37-.36,1,1,0,0,0-.36,1.37Z" transform="translate(-920.45 409.83)"/><path class="cls-2" d="M959.28-326.6c5.79,0,5.8-9,0-9s-5.8,9,0,9Z" transform="translate(-920.45 409.83)"/><path class="cls-2" d="M943.28-337.6c5.79,0,5.8-9,0-9s-5.8,9,0,9Z" transform="translate(-920.45 409.83)"/><path class="cls-2" d="M959.2-348.56c6.33,0,6.34-9.83,0-9.83s-6.34,9.83,0,9.83Z" transform="translate(-920.45 409.83)"/><path class="cls-2" d="M993.82-328c9.26,0,9.27-14.38,0-14.38s-9.27,14.38,0,14.38Z" transform="translate(-920.45 409.83)"/><path class="cls-2" d="M977.78-352.06a1,1,0,0,0,0-1.91,1,1,0,0,0,0,1.91Z" transform="translate(-920.45 409.83)"/><path class="cls-2" d="M952.61-363.6c5.8,0,5.81-9,0-9s-5.8,9,0,9Z" transform="translate(-920.45 409.83)"/><path class="cls-3" d="M931.61-392c8-2.66,9.34-13.41,9.34-13.41s.12.4.35,1.1c-.55-3.42-2.64-5.94-6.85-5.44-9,1.09-12.17,11.75-13.5,15.09a11.9,11.9,0,0,0,1.55,2l-.66-.86C923.18-392.11,926.15-390.19,931.61-392Z" transform="translate(-920.45 409.83)"/><path class="cls-1" d="M1065.45-296.43c5-7,13-16,8-24a38,38,0,0,1-3.07-6.55,11.94,11.94,0,0,1-1.93,0c-7-.69-57.61-5.84-65.38-12.71s-50.64-39.16-55.46-45.69c-2.08-2.82-2.41-5.32-2-7.36-2-4.64-3.62-9.51-4.3-11.63.84,5.25-2,12.62-6.35,14.4a10.6,10.6,0,0,1-12.45-2.71c1.36,1.75,3.87,4.93,8.45,10.62,10.11,12.58,8,18,6.66,37.34s29.34,47.33,74.67,63.33c21.33,7.53,42.51,9.15,60.29,8.41C1065.71-280.17,1058.28-287.67,1065.45-296.43Z" transform="translate(-920.45 409.83)"/><path class="cls-1" d="M935-389.93c4.38-1.78,7.19-9.15,6.35-14.4-.23-.7-.35-1.1-.35-1.1s-1.34,10.75-9.34,13.41c-5.46,1.83-8.43-.09-9.77-1.48l.66.86A10.6,10.6,0,0,0,935-389.93Z" transform="translate(-920.45 409.83)"/><path class="cls-4" d="M1209.28-374.48c0,.84.19,1.84.28,2.77A8.32,8.32,0,0,0,1209.28-374.48Z" transform="translate(-920.45 409.83)"/><path class="cls-1" d="M1202.78-373.1c-2.17-.5-2.33-5.5-2.33-5.5s1.72.06,3.34.23c-3.32-1-7.62-.57-16.18,1.69-5.32,1.4-16.42,6.1-29.62,11.77.24,3.66-1.84,9.1-7.82,14.27-10.8,9.34-67.07,22.61-79.79,23.66a38,38,0,0,0,3.07,6.55c5,8-3,17-8,24-7.17,8.76.26,16.26,7.12,23.49a200.48,200.48,0,0,0,42.38-6.41c12.66-3.33,45.33-18.67,65.33-32s19.33-33.33,21.33-36.67c1.42-2.35,6.48-13.68,7.7-21.31a1,1,0,0,1-.86.4C1206.45-368.93,1205-372.6,1202.78-373.1Z" transform="translate(-920.45 409.83)"/><path class="cls-5" d="M1209.28-374.48v-.12c0-2.17-2-2.5-2.83-3.17a7.26,7.26,0,0,0-2.66-.6,15,15,0,0,1,4.49,2.35A2.84,2.84,0,0,1,1209.28-374.48Z" transform="translate(-920.45 409.83)"/><path class="cls-5" d="M1209.56-371.71a21.44,21.44,0,0,1-.25,2.38A3.84,3.84,0,0,0,1209.56-371.71Z" transform="translate(-920.45 409.83)"/><path class="cls-6" d="M1209.28-374.48a2.84,2.84,0,0,0-1-1.54,15,15,0,0,0-4.49-2.35c-1.62-.17-3.34-.23-3.34-.23s.16,5,2.33,5.5,3.67,4.17,5.67,4.17a1,1,0,0,0,.86-.4,21.44,21.44,0,0,0,.25-2.38C1209.47-372.64,1209.3-373.64,1209.28-374.48Z" transform="translate(-920.45 409.83)"/><path class="cls-6" d="M947.61-385.34c4.82,6.53,26.09,36.66,54.59,48.41,29.27,12.07,59.29,9.3,66.25,10a11.94,11.94,0,0,0,1.93,0,26.85,26.85,0,0,1-1.56-10.48c-18.32-.05-35.17-.36-42.37-2.47-11.34-3.34-21.5-6.25-48.75-26.25-9.62-7.06-22.09-12.5-26.75-17.17-1.8-1.8-3.7-5.49-5.35-9.35C945.2-390.66,945.53-388.16,947.61-385.34Z" transform="translate(-920.45 409.83)"/><path class="cls-6" d="M1068.82-337.46a26.85,26.85,0,0,0,1.56,10.48c12.72-1,69-14.32,79.79-23.66,6-5.17,8.06-10.61,7.82-14.27-18.21,7.82-40.42,17.48-57,22.89C1090.49-338.61,1079.33-337.43,1068.82-337.46Z" transform="translate(-920.45 409.83)"/><circle class="cls-7" cx="135.5" cy="98.52" r="1.75"/><circle class="cls-7" cx="166.63" cy="97.9" r="1.75"/><ellipse class="cls-8" cx="32.25" cy="64.4" rx="2.75" ry="2.5"/><ellipse class="cls-8" cx="247.73" cy="69.28" rx="2.75" ry="2.5"/><ellipse class="cls-8" cx="50.5" cy="67.4" rx="3" ry="2.5"/><ellipse class="cls-8" cx="39.62" cy="56.7" rx="1.12" ry="1.05"/><ellipse class="cls-8" cx="38.75" cy="85.4" rx="3.75" ry="3"/><circle class="cls-8" cx="54.75" cy="80.65" r="1.25"/><circle class="cls-8" cx="250.9" cy="78.32" r="1.25"/><ellipse class="cls-8" cx="66.5" cy="94.9" rx="3.5" ry="3"/><ellipse class="cls-8" cx="235.02" cy="73.43" rx="3.5" ry="3"/><ellipse class="cls-8" cx="38.25" cy="48.4" rx="2.25" ry="1.5"/><ellipse class="cls-8" cx="949.45" cy="-355.93" rx="2" ry="3" transform="translate(-86.52 1061.27) rotate(-62.91)"/><ellipse class="cls-8" cx="1189.01" cy="-345.62" rx="2" ry="3" transform="translate(34.75 1280.16) rotate(-62.91)"/><ellipse class="cls-8" cx="946.58" cy="-369.75" rx="1.38" ry="1.43" transform="translate(-75.78 1051.19) rotate(-62.91)"/><path class="cls-9" d="M1019.6-283.58c8,2.91,16,5.44,24.56,5.67,8.25.23,8.25-12.6,0-12.82-7.38-.2-14.29-2.73-21.15-5.22-7.77-2.82-11.12,9.57-3.41,12.37Z" transform="translate(-920.45 409.83)"/><path class="cls-9" d="M1125.89-289c8.06-2.42,16.19-5,23.12-9.93,6.68-4.72.29-15.85-6.47-11.07-6.11,4.32-13,6.5-20.06,8.63-7.88,2.37-4.52,14.75,3.41,12.37Z" transform="translate(-920.45 409.83)"/><path class="cls-9" d="M1165.2-307.52c8.25,0,8.26-12.83,0-12.83s-8.27,12.83,0,12.83Z" transform="translate(-920.45 409.83)"/><path class="cls-9" d="M1003.7-289.27c8.25,0,8.26-12.83,0-12.83s-8.27,12.83,0,12.83Z" transform="translate(-920.45 409.83)"/><path class="cls-7" d="M1071.19-289.46l.32-.15-.36.15a5.37,5.37,0,0,1,1.29-.35l-.4.05a6.11,6.11,0,0,1,1.48,0l-.4-.05a5.22,5.22,0,0,1,1.1.28,1.5,1.5,0,0,0,1.15-.16,1.5,1.5,0,0,0,.69-.89,1.51,1.51,0,0,0-.15-1.16,1.68,1.68,0,0,0-.9-.69,6.82,6.82,0,0,0-5.33.38,1.44,1.44,0,0,0-.69.89,1.52,1.52,0,0,0,.15,1.16,1.5,1.5,0,0,0,.89.69,1.73,1.73,0,0,0,1.16-.15Z" transform="translate(-920.45 409.83)"/><path class="cls-7" d="M1078.53-292.42l3.06,3.76a1.48,1.48,0,0,0,1.06.44,1.56,1.56,0,0,0,1.06-.44,1.52,1.52,0,0,0,.44-1.06l-.06-.4a1.45,1.45,0,0,0-.38-.66l-3.06-3.76a1.52,1.52,0,0,0-1.06-.44,1.5,1.5,0,0,0-1.06.44,1.5,1.5,0,0,0-.44,1.06l.05.4a1.49,1.49,0,0,0,.39.66Z" transform="translate(-920.45 409.83)"/><path class="cls-7" d="M1063.83-296l-2.19,5.87a1.51,1.51,0,0,0,1,1.84,1.53,1.53,0,0,0,1.84-1.05l2.2-5.86a1.52,1.52,0,0,0-1-1.85,1.55,1.55,0,0,0-1.85,1.05Z" transform="translate(-920.45 409.83)"/><path class="cls-7" d="M1050.11-310.22a21.68,21.68,0,0,1,4.46-1.29,18.64,18.64,0,0,1,2-.21,23.22,23.22,0,0,1,2.36,0,1.5,1.5,0,0,0,1.5-1.5,1.54,1.54,0,0,0-1.5-1.5,22.1,22.1,0,0,0-9.65,1.6,1.53,1.53,0,0,0-1,1.84,1.51,1.51,0,0,0,1.84,1Z" transform="translate(-920.45 409.83)"/><path class="cls-7" d="M1083.87-313a12.11,12.11,0,0,1,1.7-.09,7.87,7.87,0,0,1,.84,0l.43,0h-.1l.24,0a13.22,13.22,0,0,1,1.65.4c.27.08.53.18.8.28s-.23-.11.09,0c.14.07.29.13.43.21a1.55,1.55,0,0,0,2.06-.54,1.52,1.52,0,0,0-.54-2.05,13.58,13.58,0,0,0-7.6-1.35,1.74,1.74,0,0,0-1.06.44,1.56,1.56,0,0,0-.44,1.06c0,.73.67,1.61,1.5,1.5Z" transform="translate(-920.45 409.83)"/><path class="cls-7" d="M1055.8-308.27a1.5,1.5,0,0,0,0-3,1.5,1.5,0,0,0,0,3Z" transform="translate(-920.45 409.83)"/><path class="cls-7" d="M1086.58-309.49a1.5,1.5,0,0,0,0-3,1.5,1.5,0,0,0,0,3Z" transform="translate(-920.45 409.83)"/></svg>