<svg id="young_banana" data-name="young banana" xmlns="http://www.w3.org/2000/svg" viewBox="0 0 289.11 137.06"><defs><style>.cls-1{fill:#ffe706;}.cls-2{fill:#f7c23c;}.cls-3{fill:#aace15;}.cls-4{fill:#a3e20a;}.cls-5{fill:#47ba00;}.cls-6{fill:#3f3f3f;}.cls-7{fill:#b6f500;}</style></defs><path class="cls-1" d="M811.46-121.72c-.72-.94-.89-1.19-.89-1.19A5.51,5.51,0,0,0,811.46-121.72Z" transform="translate(-810.57 143.06)"/><path d="M956.2-34.15a9.52,9.52,0,0,0,7.2,4.5,1,1,0,0,0,1-1,1,1,0,0,0-1-1s-.28,0-.16,0-.15,0-.15,0l-.42-.08a8.84,8.84,0,0,1-.88-.25l-.44-.17-.07,0-.22-.11a7.59,7.59,0,0,1-.79-.44l-.36-.24-.2-.14-.06-.05c-.23-.2-.46-.4-.67-.61a7.92,7.92,0,0,1-.61-.69l0-.06-.13-.2c-.09-.13-.18-.26-.26-.4a1,1,0,0,0-1.37-.36,1,1,0,0,0-.36,1.37Z" transform="translate(-810.57 143.06)"/><path class="cls-2" d="M849.4-59.82c5.79,0,5.8-9,0-9s-5.8,9,0,9Z" transform="translate(-810.57 143.06)"/><path class="cls-2" d="M833.4-70.82c5.79,0,5.8-9,0-9s-5.8,9,0,9Z" transform="translate(-810.57 143.06)"/><path class="cls-2" d="M849.32-81.78c6.32,0,6.33-9.84,0-9.84s-6.34,9.84,0,9.84Z" transform="translate(-810.57 143.06)"/><path class="cls-2" d="M883.94-61.2c9.26,0,9.27-14.39,0-14.39s-9.27,14.39,0,14.39Z" transform="translate(-810.57 143.06)"/><path class="cls-2" d="M867.9-85.28a1,1,0,0,0,0-1.92,1,1,0,0,0,0,1.92Z" transform="translate(-810.57 143.06)"/><path class="cls-2" d="M842.73-96.82c5.79,0,5.8-9,0-9s-5.8,9,0,9Z" transform="translate(-810.57 143.06)"/><path class="cls-3" d="M821.73-125.24c8-2.67,9.34-13.42,9.34-13.42s.12.41.34,1.1c-.54-3.42-2.63-5.94-6.84-5.43-9,1.08-12.17,11.75-13.5,15.08a11.9,11.9,0,0,0,1.55,2l-.66-.85C813.29-125.33,816.27-123.42,821.73-125.24Z" transform="translate(-810.57 143.06)"/><path class="cls-4" d="M955.57-29.66c5-7,13-16,8-24a37,37,0,0,1-3.07-6.55,12.2,12.2,0,0,1-1.93.05c-7-.69-57.61-5.84-65.38-12.71S842.55-112,837.73-118.56c-2.09-2.83-2.41-5.32-2-7.37-2-4.63-3.62-9.51-4.31-11.63.84,5.25-2,12.63-6.34,14.4a10.58,10.58,0,0,1-12.45-2.71c1.36,1.76,3.87,4.93,8.45,10.63,10.11,12.58,8,18,6.66,37.33s29.34,47.34,74.67,63.34C923.73-7,944.91-5.42,962.68-6.16,955.83-13.4,948.39-20.89,955.57-29.66Z" transform="translate(-810.57 143.06)"/><path class="cls-5" d="M825.07-123.16c4.38-1.77,7.18-9.15,6.34-14.4-.22-.69-.34-1.1-.34-1.1s-1.34,10.75-9.34,13.42c-5.46,1.82-8.44-.09-9.77-1.48l.66.85A10.58,10.58,0,0,0,825.07-123.16Z" transform="translate(-810.57 143.06)"/><path class="cls-4" d="M1092.9-106.32c-2.17-.5-2.33-5.5-2.33-5.5s1.72,0,3.34.23c-3.33-1-7.62-.57-16.18,1.68-5.32,1.4-16.42,6.11-29.62,11.78.23,3.66-1.84,9.1-7.82,14.26-10.8,9.35-67.07,22.61-79.79,23.66a37,37,0,0,0,3.07,6.55c5,8-3,17-8,24-7.18,8.77.26,16.26,7.11,23.5a200.48,200.48,0,0,0,42.39-6.41c12.66-3.34,45.33-18.67,65.33-32s19.33-33.34,21.33-36.67c1.42-2.35,6.48-13.69,7.69-21.31a1,1,0,0,1-.85.39C1096.57-102.16,1095.07-105.82,1092.9-106.32Z" transform="translate(-810.57 143.06)"/><path class="cls-5" d="M1099.4-107.7v-.12c0-2.17-2-2.5-2.83-3.17a7.31,7.31,0,0,0-2.66-.6,14.8,14.8,0,0,1,4.49,2.35A2.84,2.84,0,0,1,1099.4-107.7Z" transform="translate(-810.57 143.06)"/><path class="cls-5" d="M1099.4-107.7a2.84,2.84,0,0,0-1-1.54,14.8,14.8,0,0,0-4.49-2.35c-1.62-.18-3.34-.23-3.34-.23s.16,5,2.33,5.5,3.67,4.16,5.67,4.16a1,1,0,0,0,.85-.39,19.82,19.82,0,0,0,.26-2.38C1099.58-105.86,1099.42-106.87,1099.4-107.7Z" transform="translate(-810.57 143.06)"/><path class="cls-3" d="M837.73-118.56c4.82,6.52,26.09,36.65,54.59,48.4,29.27,12.07,59.28,9.31,66.25,10a12.2,12.2,0,0,0,1.93-.05,26.62,26.62,0,0,1-1.56-10.47c-18.32,0-35.17-.36-42.37-2.48-11.34-3.33-21.5-6.25-48.75-26.25-9.62-7-22.09-12.5-26.75-17.16-1.8-1.8-3.7-5.5-5.35-9.36C835.32-123.88,835.64-121.39,837.73-118.56Z" transform="translate(-810.57 143.06)"/><path class="cls-3" d="M958.94-70.68a26.62,26.62,0,0,0,1.56,10.47c12.72-1,69-14.31,79.79-23.66,6-5.16,8-10.6,7.82-14.26-18.21,7.82-40.43,17.48-57,22.89C980.61-71.84,969.45-70.66,958.94-70.68Z" transform="translate(-810.57 143.06)"/><circle class="cls-6" cx="135.5" cy="98.52" r="1.75"/><circle class="cls-6" cx="166.63" cy="97.9" r="1.75"/><path class="cls-7" d="M909.72-16.81c8,2.91,16,5.44,24.56,5.68,8.25.22,8.25-12.6,0-12.83-7.38-.2-14.29-2.72-21.16-5.21C905.35-32,902-19.6,909.72-16.81Z" transform="translate(-810.57 143.06)"/><path class="cls-7" d="M1016-22.19c8.06-2.42,16.19-5,23.12-9.93,6.68-4.73.28-15.85-6.47-11.07-6.12,4.32-13,6.5-20.06,8.63-7.88,2.37-4.52,14.75,3.41,12.37Z" transform="translate(-810.57 143.06)"/><path class="cls-7" d="M1055.32-40.74c8.25,0,8.26-12.83,0-12.83s-8.27,12.83,0,12.83Z" transform="translate(-810.57 143.06)"/><path class="cls-7" d="M893.82-22.49c8.25,0,8.26-12.83,0-12.83s-8.27,12.83,0,12.83Z" transform="translate(-810.57 143.06)"/><path class="cls-6" d="M961.89-30a1.59,1.59,0,0,1,2.38,0,1.49,1.49,0,0,1-.67,2.08,1,1,0,0,0,.53,1.93,2,2,0,0,1,2.15.71,2,2,0,0,1-.07,2.27,3,3,0,0,1-2.7.81c-.85-.06-2-.24-2.34-1.06a1,1,0,0,0-1.37-.36,1,1,0,0,0-.36,1.37,3.9,3.9,0,0,0,2.94,1.9,6.55,6.55,0,0,0,3.94-.29,3.94,3.94,0,0,0,1.16-6.29,4,4,0,0,0-3.88-1l.53,1.93A3.5,3.5,0,0,0,966-31a3.57,3.57,0,0,0-5.52-.4,1,1,0,0,0,0,1.41,1,1,0,0,0,1.41,0Z" transform="translate(-810.57 143.06)"/></svg>